<?xml version="1.0" encoding="UTF-8" standalone="no"?>
<!-- Generated by IcoMoon.io -->

<svg
   xmlns:dc="http://purl.org/dc/elements/1.1/"
   xmlns:cc="http://creativecommons.org/ns#"
   xmlns:rdf="http://www.w3.org/1999/02/22-rdf-syntax-ns#"
   xmlns:svg="http://www.w3.org/2000/svg"
   xmlns="http://www.w3.org/2000/svg"
   xmlns:sodipodi="http://sodipodi.sourceforge.net/DTD/sodipodi-0.dtd"
   xmlns:inkscape="http://www.inkscape.org/namespaces/inkscape"
   version="1.1"
   width="512"
   height="448"
   viewBox="0 0 512 448"
   id="svg11"
   sodipodi:docname="image-placeholder.svg"
   inkscape:version="0.92.3 (2405546, 2018-03-11)">
  <metadata
     id="metadata17">
    <rdf:RDF>
      <cc:Work
         rdf:about="">
        <dc:format>image/svg+xml</dc:format>
        <dc:type
           rdf:resource="http://purl.org/dc/dcmitype/StillImage" />
        <dc:title />
      </cc:Work>
    </rdf:RDF>
  </metadata>
  <defs
     id="defs15" />
  <sodipodi:namedview
     pagecolor="#ffffff"
     bordercolor="#666666"
     borderopacity="1"
     objecttolerance="10"
     gridtolerance="10"
     guidetolerance="10"
     inkscape:pageopacity="0"
     inkscape:pageshadow="2"
     inkscape:window-width="1920"
     inkscape:window-height="1025"
     id="namedview13"
     showgrid="false"
     fit-margin-top="0"
     fit-margin-left="0"
     fit-margin-right="0"
     fit-margin-bottom="0"
     inkscape:zoom="0.65186406"
     inkscape:cx="-110.68547"
     inkscape:cy="275.08206"
     inkscape:window-x="0"
     inkscape:window-y="27"
     inkscape:window-maximized="1"
     inkscape:current-layer="svg11" />
  <g
     id="icomoon-ignore"
     transform="translate(0,-32)" />
  <path
     d="m 479.942,32 c 0.02,0.017 0.041,0.038 0.058,0.058 v 383.885 c -0.017,0.02 -0.038,0.041 -0.058,0.058 H 32.057 C 32.037,415.984 32.016,415.963 32,415.943 V 32.057 C 32.017,32.037 32.038,32.016 32.057,32 Z M 480,0 H 32 C 14.4,0 0,14.4 0,32 v 384 c 0,17.6 14.4,32 32,32 h 448 c 17.6,0 32,-14.4 32,-32 V 32 C 512,14.4 497.6,0 480,0 Z"
     id="path5"
     style="stroke-width:0.2;stroke-miterlimit:4;stroke-dasharray:none;fill:#ebebeb;fill-opacity:1"
     inkscape:connector-curvature="0" />
  <path
     d="m 416,112 c 0,26.51 -21.49,48 -48,48 -26.51,0 -48,-21.49 -48,-48 0,-26.51 21.49,-48 48,-48 26.51,0 48,21.49 48,48 z"
     id="path7"
     inkscape:connector-curvature="0"
     style="fill:#ebebeb;fill-opacity:1" />
  <path
     d="M 448,384 H 64 V 320 L 176,128 304,288 h 32 l 112,-96 z"
     id="path9"
     inkscape:connector-curvature="0"
     style="fill:#ebebeb;fill-opacity:1" />
  <style
     id="style3"
     type="text/css">
	.st0{fill:#D40511;}
</style>
</svg>
